<svg xmlns="http://www.w3.org/2000/svg" width="200px" height="70px" preserveAspectRatio="xMidYMid meet" viewBox="0 0 299.9999694824219 72.90979766845703" overflow="visible"><defs id="SvgjsDefs1117"></defs><g id="SvgjsG1118" transform="scale(0.6692902845822291)" opacity="1"><g id="SvgjsG1119" class="tmPSrAW0k" transform="translate(0, 0) scale(1.08936)" light-content="false" non-strokable="false" fill="#ffffff"><rect width="100" height="100" rx="10"></rect></g><g id="SvgjsG1120" class="Rhk0RMkkpb" transform="translate(24.837408, 24.837408) scale(0.8714880000000002)" light-content="true" non-strokable="false" fill="#080808"><path fill-rule="evenodd" d="M34 68C15.222 68 0 52.778 0 34V2a2 2 0 0 1 2-2h32c18.778 0 34 15.222 34 34S52.778 68 34 68zM3.112 4H4v30c0 16.569 13.431 30 30 30 16.569 0 30-13.431 30-30C64 17.431 50.569 4 34 4H3.112zM34 58c-13.255 0-24-10.745-24-24V12a2 2 0 0 1 2-2h22c13.255 0 24 10.745 24 24S47.255 58 34 58zM13.442 14l.558-.522V34c0 11.046 8.954 20 20 20s20-8.954 20-20-8.954-20-20-20H13.442z"></path></g><rect id="SvgjsRect1121" width="2" height="108.936" fill="#ffffff" transform="translate(142.436, 0) scale(1)" light-content="false"></rect><g id="SvgjsG1122" class="text" transform="translate(310.81600488281254, 55.893) scale(1)" light-content="false" fill="#ffffff"><path d="M-129.21 -36.83L-101 -36.83L-101 -40.25L-132.88 -40.25L-132.88 0L-129.21 0L-129.21 -19.57L-102.44 -19.57L-102.44 -22.97L-129.21 -22.97Z M-57.73 0L-53.72 0L-74.78 -40.25L-79.09 -40.25L-100.15 0L-96.14 0L-90.6 -10.61L-63.27 -10.61ZM-76.92 -36.71L-65.05 -13.97L-88.81 -13.97Z M-1.86 -20.16C-1.86 -24 -2.45 -27.22 -3.63 -29.79C-4.81 -32.37 -6.45 -34.44 -8.53 -35.99C-10.61 -37.54 -13.06 -38.64 -15.89 -39.29C-18.73 -39.93 -21.79 -40.25 -25.09 -40.25L-45.81 -40.25L-45.81 0L-25.03 0C-22.83 0 -20.72 -0.14 -18.72 -0.42C-16.72 -0.71 -14.86 -1.16 -13.15 -1.79C-11.45 -2.41 -9.89 -3.24 -8.5 -4.28C-7.1 -5.31 -5.91 -6.57 -4.94 -8.06C-3.96 -9.54 -3.2 -11.28 -2.67 -13.29C-2.13 -15.29 -1.86 -17.58 -1.86 -20.16ZM-5.64 -20.16C-5.64 -16.87 -6.12 -14.16 -7.08 -12C-8.03 -9.84 -9.37 -8.12 -11.07 -6.84C-12.78 -5.56 -14.83 -4.66 -17.21 -4.15C-19.59 -3.63 -22.22 -3.37 -25.09 -3.37L-42.14 -3.37L-42.14 -36.91L-25.09 -36.91C-23.18 -36.91 -21.37 -36.81 -19.67 -36.59C-17.97 -36.38 -16.4 -36.01 -14.96 -35.49C-13.51 -34.98 -12.21 -34.3 -11.06 -33.46C-9.91 -32.62 -8.93 -31.58 -8.13 -30.34C-7.33 -29.1 -6.71 -27.64 -6.28 -25.96C-5.85 -24.28 -5.64 -22.34 -5.64 -20.16Z M8.8 0L41.88 0L41.88 -3.43L12.47 -3.43L12.47 -40.25L8.8 -40.25Z M91.16 -12.66L91.16 -12.66L91.16 -40.25L87.5 -40.25L87.5 -12.36C87.5 -11.02 87.14 -9.74 86.43 -8.54C85.71 -7.34 84.65 -6.29 83.25 -5.39C81.84 -4.49 80.1 -3.78 78.03 -3.25C75.96 -2.72 73.57 -2.46 70.85 -2.46C68.12 -2.46 65.72 -2.72 63.65 -3.25C61.58 -3.78 59.84 -4.49 58.43 -5.39C57.03 -6.29 55.97 -7.34 55.25 -8.54C54.54 -9.74 54.18 -11.02 54.18 -12.36L54.18 -40.25L50.52 -40.25L50.52 -12.66C50.52 -10.64 50.95 -8.81 51.8 -7.16C52.65 -5.51 53.92 -4.1 55.62 -2.92C57.32 -1.73 59.44 -0.82 61.98 -0.18C64.52 0.47 67.48 0.79 70.85 0.79C74.23 0.79 77.19 0.47 79.73 -0.18C82.27 -0.82 84.38 -1.73 86.07 -2.92C87.76 -4.1 89.03 -5.51 89.88 -7.16C90.73 -8.81 91.16 -10.64 91.16 -12.66Z M104.34 0L137.42 0L137.42 -3.43L108 -3.43L108 -40.25L104.34 -40.25Z"></path></g><g id="SvgjsG1123" class="text" transform="translate(223.44599832153324, 93.29300061035156) scale(1)" light-content="false" fill="#ffffff"><path d="M-24.3 0L-22.29 0L-32.83 -20.13L-34.98 -20.13L-45.51 0L-43.51 0L-40.74 -5.3L-27.07 -5.3ZM-33.9 -18.35L-27.96 -6.99L-39.84 -6.99Z M-19.57 0L-1.83 0L-1.83 -1.71L-17.17 -1.71L-2.14 -19.15L-2.14 -20.13L-19.17 -20.13L-19.17 -18.41L-4.98 -18.41L-19.57 -1.49Z M5.33 -20.13L3.5 -20.13L3.5 0L5.33 0L5.33 -14.79C5.72 -15.27 6.19 -15.75 6.72 -16.24C7.26 -16.72 7.85 -17.16 8.48 -17.55C9.12 -17.94 9.78 -18.26 10.48 -18.5C11.18 -18.75 11.88 -18.87 12.6 -18.87C13.35 -18.87 14.05 -18.78 14.69 -18.6C15.32 -18.42 15.88 -18.12 16.35 -17.7C16.82 -17.28 17.18 -16.73 17.45 -16.05C17.71 -15.37 17.84 -14.53 17.84 -13.54L17.84 0L19.67 0L19.67 -13.77C19.67 -14.04 19.67 -14.28 19.67 -14.47C19.66 -14.67 19.63 -14.9 19.58 -15.18C20.01 -15.64 20.51 -16.1 21.08 -16.54C21.65 -16.98 22.26 -17.37 22.91 -17.72C23.56 -18.06 24.25 -18.34 24.97 -18.55C25.69 -18.76 26.41 -18.87 27.14 -18.87C28.06 -18.87 28.85 -18.75 29.51 -18.51C30.17 -18.27 30.71 -17.92 31.14 -17.46C31.56 -17 31.87 -16.44 32.07 -15.78C32.27 -15.12 32.37 -14.37 32.37 -13.54L32.37 0L34.2 0L34.2 -14C34.2 -14.92 34.05 -15.78 33.73 -16.59C33.41 -17.4 32.96 -18.1 32.39 -18.69C31.81 -19.29 31.11 -19.76 30.29 -20.1C29.46 -20.44 28.54 -20.61 27.54 -20.61C26.75 -20.61 25.98 -20.52 25.24 -20.35C24.5 -20.17 23.78 -19.92 23.08 -19.6C22.38 -19.28 21.7 -18.88 21.04 -18.42C20.37 -17.96 19.73 -17.44 19.1 -16.86C18.46 -18.14 17.61 -19.08 16.57 -19.69C15.52 -20.31 14.32 -20.61 12.96 -20.61C12.11 -20.61 11.32 -20.49 10.58 -20.26C9.83 -20.02 9.15 -19.73 8.51 -19.38C7.88 -19.03 7.29 -18.64 6.77 -18.22C6.24 -17.8 5.76 -17.41 5.33 -17.04Z M40.88 0L42.71 0L42.71 -20.13L40.88 -20.13Z"></path></g></g></svg>